<svg width="26" height="14" viewBox="0 0 26 14" fill="none" xmlns="http://www.w3.org/2000/svg">
<path d="M2.01824 13.4298L12.1686 3.43989C12.3901 3.22079 12.689 3.0979 13.0006 3.0979C13.3121 3.0979 13.611 3.22079 13.8325 3.43989L23.9829 13.4276C24.2057 13.6466 24.5056 13.7693 24.8181 13.7693C25.1305 13.7693 25.4304 13.6466 25.6533 13.4276C25.763 13.3207 25.8502 13.1928 25.9098 13.0516C25.9693 12.9104 26 12.7587 26 12.6054C26 12.4522 25.9693 12.3005 25.9098 12.1593C25.8502 12.0181 25.763 11.8902 25.6533 11.7832L15.5051 1.79549C14.8367 1.13919 13.9373 0.771484 13.0006 0.771484C12.0638 0.771484 11.1644 1.13919 10.496 1.79549L0.347822 11.7832C0.237757 11.8902 0.150266 12.0182 0.0905237 12.1596C0.0307812 12.301 0 12.453 0 12.6065C0 12.76 0.0307812 12.912 0.0905237 13.0534C0.150266 13.1948 0.237757 13.3228 0.347822 13.4298C0.570665 13.6488 0.8706 13.7715 1.18303 13.7715C1.49547 13.7715 1.7954 13.6488 2.01824 13.4298Z" fill="#1A1722"/>
</svg>
