<svg width="26" height="14" viewBox="0 0 26 14" fill="none" xmlns="http://www.w3.org/2000/svg">
<path d="M23.9818 1.11317L13.8314 11.1031C13.6099 11.3222 13.311 11.4451 12.9994 11.4451C12.6879 11.4451 12.389 11.3222 12.1675 11.1031L2.01713 1.11534C1.79429 0.896357 1.49435 0.773652 1.18192 0.773652C0.869488 0.773652 0.569553 0.896357 0.34671 1.11534C0.236977 1.22232 0.149769 1.35018 0.0902233 1.49139C0.0306778 1.63259 0 1.78429 0 1.93754C0 2.09079 0.0306778 2.24249 0.0902233 2.3837C0.149769 2.52491 0.236977 2.65277 0.34671 2.75974L10.4949 12.7475C11.1633 13.4038 12.0627 13.7715 12.9994 13.7715C13.9362 13.7715 14.8356 13.4038 15.504 12.7475L25.6522 2.75974C25.7622 2.65273 25.8497 2.52474 25.9095 2.38333C25.9692 2.24192 26 2.08997 26 1.93646C26 1.78295 25.9692 1.631 25.9095 1.48959C25.8497 1.34818 25.7622 1.22018 25.6522 1.11317C25.4293 0.894189 25.1294 0.771484 24.817 0.771484C24.5045 0.771484 24.2046 0.894189 23.9818 1.11317Z" fill="#1A1722"/>
</svg>
