<svg width="101" height="101" viewBox="0 0 101 101" fill="none" xmlns="http://www.w3.org/2000/svg">
<path d="M50.5 0.5C40.611 0.5 30.944 3.43245 22.7215 8.92652C14.499 14.4206 8.09043 22.2295 4.30604 31.3658C0.521664 40.5021 -0.468502 50.5555 1.46076 60.2545C3.39002 69.9536 8.15206 78.8627 15.1447 85.8553C22.1373 92.8479 31.0465 97.61 40.7455 99.5392C50.4445 101.468 60.4979 100.478 69.6342 96.694C78.7705 92.9096 86.5794 86.5009 92.0735 78.2785C97.5676 70.056 100.5 60.3891 100.5 50.5C100.5 37.2392 95.2322 24.5215 85.8553 15.1447C76.4785 5.76784 63.7608 0.5 50.5 0.5ZM77.0964 53.6964L34.2393 75.125C33.6947 75.3971 33.0895 75.5255 32.4813 75.498C31.8731 75.4704 31.282 75.2879 30.7642 74.9676C30.2464 74.6473 29.8191 74.2 29.5228 73.6681C29.2265 73.1362 29.0712 72.5374 29.0714 71.9286V29.0714C29.0718 28.4629 29.2276 27.8645 29.5241 27.3331C29.8206 26.8017 30.248 26.3549 30.7657 26.035C31.2834 25.7152 31.8743 25.5329 32.4822 25.5055C33.0901 25.4781 33.6949 25.6065 34.2393 25.8786L77.0964 47.3071C77.6889 47.6041 78.187 48.06 78.5351 48.6238C78.8832 49.1877 79.0676 49.8373 79.0676 50.5C79.0676 51.1627 78.8832 51.8123 78.5351 52.3762C78.187 52.94 77.6889 53.3959 77.0964 53.6928" fill="#F8FFCE"/>
</svg>
